<svg width="1024" height="1024" viewBox="0 0 1024 1024" fill="none" xmlns="http://www.w3.org/2000/svg">
<rect width="1024" height="1024" fill="#E5E5E5"/>
<path d="M-68.908 743.111C153.309 184.955 660.155 47.6185 456.007 534.456C251.859 1021.29 874.636 593.017 717.655 1061.27" stroke="#B5FF57" stroke-opacity="0.1" stroke-width="100"/>
<path d="M-68.908 743.111C153.309 184.955 660.155 47.6185 456.007 534.456C251.859 1021.29 874.636 593.017 717.655 1061.27" stroke="url(#paint0_linear)" stroke-opacity="0.4" stroke-width="100"/>
<ellipse cx="852.397" cy="461.987" rx="102.708" ry="102.664" fill="white" fill-opacity="0.1"/>
<ellipse cx="667.523" cy="164.262" rx="154.062" ry="153.996" fill="white" fill-opacity="0.1"/>
<rect x="564.815" y="333.657" width="205.415" height="307.991" rx="100" fill="white" fill-opacity="0.25"/>
<rect x="605.898" y="374.723" width="123.249" height="225.86" rx="60" fill="white" fill-opacity="0.25"/>
<rect x="585.357" y="354.19" width="164.332" height="266.926" rx="80" fill="white" fill-opacity="0.25"/>
<rect x="657.252" y="621.116" width="20.5415" height="102.664" fill="white"/>
<rect x="626.44" y="703.247" width="82.1662" height="20.5328" rx="10" fill="white"/>
<path fill-rule="evenodd" clip-rule="evenodd" d="M574.815 528.719C569.292 528.719 564.815 533.196 564.815 538.719V541.649C564.815 596.877 609.587 641.649 664.815 641.649H670.231C725.459 641.649 770.231 596.877 770.231 541.649V538.719C770.231 533.196 765.754 528.719 760.231 528.719H759.689C754.166 528.719 749.689 533.196 749.689 538.719V541.116C749.689 585.299 713.872 621.116 669.689 621.116H665.357C621.174 621.116 585.357 585.299 585.357 541.116V538.719C585.357 533.196 580.88 528.719 575.357 528.719H574.815Z" fill="white"/>
<defs>
<linearGradient id="paint0_linear" x1="79.004" y1="437.264" x2="839.49" y2="817.766" gradientUnits="userSpaceOnUse">
<stop stop-color="#FD46D5"/>
<stop offset="1" stop-color="white" stop-opacity="0"/>
</linearGradient>
</defs>
</svg>
